<mxfile host="app.diagrams.net" modified="2021-05-12T07:04:41.942Z" agent="5.0 (Windows NT 10.0; Win64; x64) AppleWebKit/537.36 (KHTML, like Gecko) Chrome/90.0.4430.93 Safari/537.36" etag="9nQCFfchTdvaq-T4GicA" version="14.6.12" type="github">
  <diagram id="4KSGlFHtcbFubqA_0ad3" name="Page-1">
    <mxGraphModel dx="2031" dy="1189" grid="1" gridSize="10" guides="1" tooltips="1" connect="1" arrows="1" fold="1" page="1" pageScale="1" pageWidth="850" pageHeight="1100" math="0" shadow="0">
      <root>
        <mxCell id="0" />
        <mxCell id="1" parent="0" />
        <mxCell id="leJkpRWJauK3kYzL0tL3-1" value="Actor" style="shape=umlActor;verticalLabelPosition=bottom;verticalAlign=top;html=1;" vertex="1" parent="1">
          <mxGeometry x="70" y="50" width="30" height="60" as="geometry" />
        </mxCell>
        <mxCell id="leJkpRWJauK3kYzL0tL3-3" value="" style="shape=corner;whiteSpace=wrap;html=1;" vertex="1" parent="1">
          <mxGeometry x="80" y="140" width="10" height="1260" as="geometry" />
        </mxCell>
        <mxCell id="leJkpRWJauK3kYzL0tL3-4" value="LoginFrm" style="shape=umlLifeline;participant=umlBoundary;perimeter=lifelinePerimeter;whiteSpace=wrap;html=1;container=1;collapsible=0;recursiveResize=0;verticalAlign=top;spacingTop=36;outlineConnect=0;" vertex="1" parent="1">
          <mxGeometry x="140" y="50" width="50" height="1350" as="geometry" />
        </mxCell>
        <mxCell id="leJkpRWJauK3kYzL0tL3-24" value="" style="html=1;points=[];perimeter=orthogonalPerimeter;" vertex="1" parent="leJkpRWJauK3kYzL0tL3-4">
          <mxGeometry x="20" y="110" width="10" height="1240" as="geometry" />
        </mxCell>
        <mxCell id="leJkpRWJauK3kYzL0tL3-55" value="" style="html=1;points=[];perimeter=orthogonalPerimeter;" vertex="1" parent="leJkpRWJauK3kYzL0tL3-4">
          <mxGeometry x="25" y="150" width="10" height="220" as="geometry" />
        </mxCell>
        <mxCell id="leJkpRWJauK3kYzL0tL3-56" value="actionPerformed()" style="edgeStyle=orthogonalEdgeStyle;html=1;align=left;spacingLeft=2;endArrow=block;rounded=0;entryX=1;entryY=0;" edge="1" target="leJkpRWJauK3kYzL0tL3-55" parent="leJkpRWJauK3kYzL0tL3-4">
          <mxGeometry relative="1" as="geometry">
            <mxPoint x="30" y="150" as="sourcePoint" />
            <Array as="points">
              <mxPoint x="30" y="120" />
              <mxPoint x="60" y="120" />
              <mxPoint x="60" y="150" />
            </Array>
          </mxGeometry>
        </mxCell>
        <mxCell id="leJkpRWJauK3kYzL0tL3-5" value="ManageHomeFrm" style="shape=umlLifeline;participant=umlBoundary;perimeter=lifelinePerimeter;whiteSpace=wrap;html=1;container=1;collapsible=0;recursiveResize=0;verticalAlign=top;spacingTop=36;outlineConnect=0;" vertex="1" parent="1">
          <mxGeometry x="220" y="50" width="50" height="1350" as="geometry" />
        </mxCell>
        <mxCell id="leJkpRWJauK3kYzL0tL3-58" value="" style="html=1;points=[];perimeter=orthogonalPerimeter;" vertex="1" parent="leJkpRWJauK3kYzL0tL3-5">
          <mxGeometry x="20" y="360" width="10" height="960" as="geometry" />
        </mxCell>
        <mxCell id="leJkpRWJauK3kYzL0tL3-60" value="" style="html=1;points=[];perimeter=orthogonalPerimeter;" vertex="1" parent="leJkpRWJauK3kYzL0tL3-5">
          <mxGeometry x="25" y="390" width="10" height="40" as="geometry" />
        </mxCell>
        <mxCell id="leJkpRWJauK3kYzL0tL3-61" value="13. ManageHomeFrm()" style="edgeStyle=orthogonalEdgeStyle;html=1;align=left;spacingLeft=2;endArrow=block;rounded=0;entryX=1;entryY=0;" edge="1" target="leJkpRWJauK3kYzL0tL3-60" parent="leJkpRWJauK3kYzL0tL3-5">
          <mxGeometry relative="1" as="geometry">
            <mxPoint x="30" y="370" as="sourcePoint" />
            <Array as="points">
              <mxPoint x="60" y="370" />
            </Array>
          </mxGeometry>
        </mxCell>
        <mxCell id="leJkpRWJauK3kYzL0tL3-65" value="" style="html=1;points=[];perimeter=orthogonalPerimeter;" vertex="1" parent="leJkpRWJauK3kYzL0tL3-5">
          <mxGeometry x="25" y="490" width="10" height="40" as="geometry" />
        </mxCell>
        <mxCell id="leJkpRWJauK3kYzL0tL3-66" value="16. actionPerformed()" style="edgeStyle=orthogonalEdgeStyle;html=1;align=left;spacingLeft=2;endArrow=block;rounded=0;entryX=1;entryY=0;" edge="1" target="leJkpRWJauK3kYzL0tL3-65" parent="leJkpRWJauK3kYzL0tL3-5">
          <mxGeometry relative="1" as="geometry">
            <mxPoint x="30" y="470" as="sourcePoint" />
            <Array as="points">
              <mxPoint x="60" y="470" />
            </Array>
          </mxGeometry>
        </mxCell>
        <mxCell id="leJkpRWJauK3kYzL0tL3-6" value="RevenueStatisticTourFrm" style="shape=umlLifeline;participant=umlBoundary;perimeter=lifelinePerimeter;whiteSpace=wrap;html=1;container=1;collapsible=0;recursiveResize=0;verticalAlign=top;spacingTop=36;outlineConnect=0;" vertex="1" parent="1">
          <mxGeometry x="340" y="50" width="50" height="1350" as="geometry" />
        </mxCell>
        <mxCell id="leJkpRWJauK3kYzL0tL3-68" value="" style="html=1;points=[];perimeter=orthogonalPerimeter;" vertex="1" parent="leJkpRWJauK3kYzL0tL3-6">
          <mxGeometry x="20.83" y="510" width="10" height="810" as="geometry" />
        </mxCell>
        <mxCell id="leJkpRWJauK3kYzL0tL3-70" value="" style="html=1;points=[];perimeter=orthogonalPerimeter;" vertex="1" parent="leJkpRWJauK3kYzL0tL3-6">
          <mxGeometry x="26" y="540" width="10" height="30" as="geometry" />
        </mxCell>
        <mxCell id="leJkpRWJauK3kYzL0tL3-71" value="18. RevenueStatisticTourFrm()" style="edgeStyle=orthogonalEdgeStyle;html=1;align=left;spacingLeft=2;endArrow=block;rounded=0;entryX=1;entryY=0;" edge="1" target="leJkpRWJauK3kYzL0tL3-70" parent="leJkpRWJauK3kYzL0tL3-6">
          <mxGeometry relative="1" as="geometry">
            <mxPoint x="31" y="520" as="sourcePoint" />
            <Array as="points">
              <mxPoint x="61" y="520" />
            </Array>
          </mxGeometry>
        </mxCell>
        <mxCell id="leJkpRWJauK3kYzL0tL3-78" value="" style="html=1;points=[];perimeter=orthogonalPerimeter;" vertex="1" parent="leJkpRWJauK3kYzL0tL3-6">
          <mxGeometry x="26" y="630" width="10" height="260" as="geometry" />
        </mxCell>
        <mxCell id="leJkpRWJauK3kYzL0tL3-79" value="21. actionPerformed()" style="edgeStyle=orthogonalEdgeStyle;html=1;align=left;spacingLeft=2;endArrow=block;rounded=0;entryX=1;entryY=0;" edge="1" target="leJkpRWJauK3kYzL0tL3-78" parent="leJkpRWJauK3kYzL0tL3-6">
          <mxGeometry relative="1" as="geometry">
            <mxPoint x="31" y="610" as="sourcePoint" />
            <Array as="points">
              <mxPoint x="61" y="610" />
            </Array>
          </mxGeometry>
        </mxCell>
        <mxCell id="leJkpRWJauK3kYzL0tL3-97" value="" style="html=1;points=[];perimeter=orthogonalPerimeter;" vertex="1" parent="leJkpRWJauK3kYzL0tL3-6">
          <mxGeometry x="26" y="960" width="10" height="40" as="geometry" />
        </mxCell>
        <mxCell id="leJkpRWJauK3kYzL0tL3-98" value="33. actionPerformed()" style="edgeStyle=orthogonalEdgeStyle;html=1;align=left;spacingLeft=2;endArrow=block;rounded=0;entryX=1;entryY=0;" edge="1" target="leJkpRWJauK3kYzL0tL3-97" parent="leJkpRWJauK3kYzL0tL3-6">
          <mxGeometry relative="1" as="geometry">
            <mxPoint x="31" y="940" as="sourcePoint" />
            <Array as="points">
              <mxPoint x="61" y="940" />
            </Array>
          </mxGeometry>
        </mxCell>
        <mxCell id="leJkpRWJauK3kYzL0tL3-7" value="TourStatDetailFrm" style="shape=umlLifeline;participant=umlBoundary;perimeter=lifelinePerimeter;whiteSpace=wrap;html=1;container=1;collapsible=0;recursiveResize=0;verticalAlign=top;spacingTop=36;outlineConnect=0;" vertex="1" parent="1">
          <mxGeometry x="460" y="50" width="50" height="1360" as="geometry" />
        </mxCell>
        <mxCell id="leJkpRWJauK3kYzL0tL3-99" value="" style="html=1;points=[];perimeter=orthogonalPerimeter;" vertex="1" parent="leJkpRWJauK3kYzL0tL3-7">
          <mxGeometry x="20" y="980" width="10" height="340" as="geometry" />
        </mxCell>
        <mxCell id="leJkpRWJauK3kYzL0tL3-101" value="" style="html=1;points=[];perimeter=orthogonalPerimeter;" vertex="1" parent="leJkpRWJauK3kYzL0tL3-7">
          <mxGeometry x="25" y="1010" width="10" height="300" as="geometry" />
        </mxCell>
        <mxCell id="leJkpRWJauK3kYzL0tL3-102" value="35.TourStatDetailFrm()" style="edgeStyle=orthogonalEdgeStyle;html=1;align=left;spacingLeft=2;endArrow=block;rounded=0;entryX=1;entryY=0;" edge="1" target="leJkpRWJauK3kYzL0tL3-101" parent="leJkpRWJauK3kYzL0tL3-7">
          <mxGeometry relative="1" as="geometry">
            <mxPoint x="30" y="990" as="sourcePoint" />
            <Array as="points">
              <mxPoint x="60" y="990" />
            </Array>
          </mxGeometry>
        </mxCell>
        <mxCell id="leJkpRWJauK3kYzL0tL3-8" value="UserDAO" style="shape=umlLifeline;participant=umlControl;perimeter=lifelinePerimeter;whiteSpace=wrap;html=1;container=1;collapsible=0;recursiveResize=0;verticalAlign=top;spacingTop=36;outlineConnect=0;" vertex="1" parent="1">
          <mxGeometry x="540" y="50" width="40" height="1350" as="geometry" />
        </mxCell>
        <mxCell id="leJkpRWJauK3kYzL0tL3-44" value="" style="html=1;points=[];perimeter=orthogonalPerimeter;" vertex="1" parent="leJkpRWJauK3kYzL0tL3-8">
          <mxGeometry x="15" y="210" width="10" height="170" as="geometry" />
        </mxCell>
        <mxCell id="leJkpRWJauK3kYzL0tL3-46" value="" style="html=1;points=[];perimeter=orthogonalPerimeter;" vertex="1" parent="leJkpRWJauK3kYzL0tL3-8">
          <mxGeometry x="20" y="240" width="10" height="100" as="geometry" />
        </mxCell>
        <mxCell id="leJkpRWJauK3kYzL0tL3-47" value="7. checkLogin()" style="edgeStyle=orthogonalEdgeStyle;html=1;align=left;spacingLeft=2;endArrow=block;rounded=0;entryX=1;entryY=0;" edge="1" target="leJkpRWJauK3kYzL0tL3-46" parent="leJkpRWJauK3kYzL0tL3-8">
          <mxGeometry relative="1" as="geometry">
            <mxPoint x="25" y="220" as="sourcePoint" />
            <Array as="points">
              <mxPoint x="55" y="220" />
            </Array>
          </mxGeometry>
        </mxCell>
        <mxCell id="leJkpRWJauK3kYzL0tL3-9" value="BookingDAO" style="shape=umlLifeline;participant=umlControl;perimeter=lifelinePerimeter;whiteSpace=wrap;html=1;container=1;collapsible=0;recursiveResize=0;verticalAlign=top;spacingTop=36;outlineConnect=0;" vertex="1" parent="1">
          <mxGeometry x="610" y="50" width="40" height="1350" as="geometry" />
        </mxCell>
        <mxCell id="leJkpRWJauK3kYzL0tL3-103" value="" style="html=1;points=[];perimeter=orthogonalPerimeter;" vertex="1" parent="leJkpRWJauK3kYzL0tL3-9">
          <mxGeometry x="15" y="1030" width="10" height="270" as="geometry" />
        </mxCell>
        <mxCell id="leJkpRWJauK3kYzL0tL3-107" value="" style="html=1;points=[];perimeter=orthogonalPerimeter;" vertex="1" parent="leJkpRWJauK3kYzL0tL3-9">
          <mxGeometry x="20" y="1060" width="10" height="210" as="geometry" />
        </mxCell>
        <mxCell id="leJkpRWJauK3kYzL0tL3-108" value="37.getBookingByTour()" style="edgeStyle=orthogonalEdgeStyle;html=1;align=left;spacingLeft=2;endArrow=block;rounded=0;entryX=1;entryY=0;" edge="1" target="leJkpRWJauK3kYzL0tL3-107" parent="leJkpRWJauK3kYzL0tL3-9">
          <mxGeometry relative="1" as="geometry">
            <mxPoint x="25" y="1040" as="sourcePoint" />
            <Array as="points">
              <mxPoint x="55" y="1040" />
            </Array>
          </mxGeometry>
        </mxCell>
        <mxCell id="leJkpRWJauK3kYzL0tL3-10" value="BookingDAO" style="shape=umlLifeline;participant=umlControl;perimeter=lifelinePerimeter;whiteSpace=wrap;html=1;container=1;collapsible=0;recursiveResize=0;verticalAlign=top;spacingTop=36;outlineConnect=0;" vertex="1" parent="1">
          <mxGeometry x="770" y="50" width="40" height="1350" as="geometry" />
        </mxCell>
        <mxCell id="leJkpRWJauK3kYzL0tL3-11" value="TourStatisticDAO" style="shape=umlLifeline;participant=umlControl;perimeter=lifelinePerimeter;whiteSpace=wrap;html=1;container=1;collapsible=0;recursiveResize=0;verticalAlign=top;spacingTop=36;outlineConnect=0;" vertex="1" parent="1">
          <mxGeometry x="690" y="50" width="40" height="1350" as="geometry" />
        </mxCell>
        <mxCell id="leJkpRWJauK3kYzL0tL3-80" value="" style="html=1;points=[];perimeter=orthogonalPerimeter;" vertex="1" parent="leJkpRWJauK3kYzL0tL3-11">
          <mxGeometry x="15" y="650" width="10" height="220" as="geometry" />
        </mxCell>
        <mxCell id="leJkpRWJauK3kYzL0tL3-82" value="" style="html=1;points=[];perimeter=orthogonalPerimeter;" vertex="1" parent="leJkpRWJauK3kYzL0tL3-11">
          <mxGeometry x="20" y="680" width="10" height="170" as="geometry" />
        </mxCell>
        <mxCell id="leJkpRWJauK3kYzL0tL3-83" value="23. getTourStat()" style="edgeStyle=orthogonalEdgeStyle;html=1;align=left;spacingLeft=2;endArrow=block;rounded=0;entryX=1;entryY=0;" edge="1" target="leJkpRWJauK3kYzL0tL3-82" parent="leJkpRWJauK3kYzL0tL3-11">
          <mxGeometry relative="1" as="geometry">
            <mxPoint x="25" y="660" as="sourcePoint" />
            <Array as="points">
              <mxPoint x="55" y="660" />
            </Array>
          </mxGeometry>
        </mxCell>
        <mxCell id="leJkpRWJauK3kYzL0tL3-12" value="User" style="shape=umlLifeline;participant=umlEntity;perimeter=lifelinePerimeter;whiteSpace=wrap;html=1;container=1;collapsible=0;recursiveResize=0;verticalAlign=top;spacingTop=36;outlineConnect=0;" vertex="1" parent="1">
          <mxGeometry x="830" y="50" width="40" height="1350" as="geometry" />
        </mxCell>
        <mxCell id="leJkpRWJauK3kYzL0tL3-30" value="" style="html=1;points=[];perimeter=orthogonalPerimeter;" vertex="1" parent="leJkpRWJauK3kYzL0tL3-12">
          <mxGeometry x="15" y="150" width="10" height="80" as="geometry" />
        </mxCell>
        <mxCell id="leJkpRWJauK3kYzL0tL3-40" value="" style="html=1;points=[];perimeter=orthogonalPerimeter;" vertex="1" parent="leJkpRWJauK3kYzL0tL3-12">
          <mxGeometry x="20" y="180" width="10" height="40" as="geometry" />
        </mxCell>
        <mxCell id="leJkpRWJauK3kYzL0tL3-41" value="4. User" style="edgeStyle=orthogonalEdgeStyle;html=1;align=left;spacingLeft=2;endArrow=block;rounded=0;entryX=1;entryY=0;" edge="1" target="leJkpRWJauK3kYzL0tL3-40" parent="leJkpRWJauK3kYzL0tL3-12">
          <mxGeometry relative="1" as="geometry">
            <mxPoint x="25" y="160" as="sourcePoint" />
            <Array as="points">
              <mxPoint x="55" y="160" />
            </Array>
          </mxGeometry>
        </mxCell>
        <mxCell id="leJkpRWJauK3kYzL0tL3-48" value="" style="html=1;points=[];perimeter=orthogonalPerimeter;" vertex="1" parent="leJkpRWJauK3kYzL0tL3-12">
          <mxGeometry x="15" y="250" width="10" height="80" as="geometry" />
        </mxCell>
        <mxCell id="leJkpRWJauK3kYzL0tL3-50" value="" style="html=1;points=[];perimeter=orthogonalPerimeter;" vertex="1" parent="leJkpRWJauK3kYzL0tL3-12">
          <mxGeometry x="20" y="280" width="10" height="40" as="geometry" />
        </mxCell>
        <mxCell id="leJkpRWJauK3kYzL0tL3-51" value="9. setter" style="edgeStyle=orthogonalEdgeStyle;html=1;align=left;spacingLeft=2;endArrow=block;rounded=0;entryX=1;entryY=0;" edge="1" target="leJkpRWJauK3kYzL0tL3-50" parent="leJkpRWJauK3kYzL0tL3-12">
          <mxGeometry relative="1" as="geometry">
            <mxPoint x="25" y="260" as="sourcePoint" />
            <Array as="points">
              <mxPoint x="50" y="260" />
            </Array>
          </mxGeometry>
        </mxCell>
        <mxCell id="leJkpRWJauK3kYzL0tL3-13" value="TourStatistic" style="shape=umlLifeline;participant=umlEntity;perimeter=lifelinePerimeter;whiteSpace=wrap;html=1;container=1;collapsible=0;recursiveResize=0;verticalAlign=top;spacingTop=36;outlineConnect=0;" vertex="1" parent="1">
          <mxGeometry x="880" y="50" width="40" height="1350" as="geometry" />
        </mxCell>
        <mxCell id="leJkpRWJauK3kYzL0tL3-84" value="" style="html=1;points=[];perimeter=orthogonalPerimeter;" vertex="1" parent="leJkpRWJauK3kYzL0tL3-13">
          <mxGeometry x="15" y="700" width="10" height="160" as="geometry" />
        </mxCell>
        <mxCell id="leJkpRWJauK3kYzL0tL3-86" value="" style="html=1;points=[];perimeter=orthogonalPerimeter;" vertex="1" parent="leJkpRWJauK3kYzL0tL3-13">
          <mxGeometry x="20" y="730" width="10" height="120" as="geometry" />
        </mxCell>
        <mxCell id="leJkpRWJauK3kYzL0tL3-87" value="25. TourStatistic()" style="edgeStyle=orthogonalEdgeStyle;html=1;align=left;spacingLeft=2;endArrow=block;rounded=0;entryX=1;entryY=0;" edge="1" target="leJkpRWJauK3kYzL0tL3-86" parent="leJkpRWJauK3kYzL0tL3-13">
          <mxGeometry relative="1" as="geometry">
            <mxPoint x="25" y="710" as="sourcePoint" />
            <Array as="points">
              <mxPoint x="55" y="710" />
            </Array>
          </mxGeometry>
        </mxCell>
        <mxCell id="leJkpRWJauK3kYzL0tL3-14" value="Tour" style="shape=umlLifeline;participant=umlEntity;perimeter=lifelinePerimeter;whiteSpace=wrap;html=1;container=1;collapsible=0;recursiveResize=0;verticalAlign=top;spacingTop=36;outlineConnect=0;" vertex="1" parent="1">
          <mxGeometry x="930" y="50" width="40" height="1350" as="geometry" />
        </mxCell>
        <mxCell id="leJkpRWJauK3kYzL0tL3-88" value="" style="html=1;points=[];perimeter=orthogonalPerimeter;" vertex="1" parent="leJkpRWJauK3kYzL0tL3-14">
          <mxGeometry x="15" y="790" width="10" height="80" as="geometry" />
        </mxCell>
        <mxCell id="leJkpRWJauK3kYzL0tL3-90" value="" style="html=1;points=[];perimeter=orthogonalPerimeter;" vertex="1" parent="leJkpRWJauK3kYzL0tL3-14">
          <mxGeometry x="20" y="820" width="10" height="40" as="geometry" />
        </mxCell>
        <mxCell id="leJkpRWJauK3kYzL0tL3-91" value="27. Tour()" style="edgeStyle=orthogonalEdgeStyle;html=1;align=left;spacingLeft=2;endArrow=block;rounded=0;entryX=1;entryY=0;" edge="1" target="leJkpRWJauK3kYzL0tL3-90" parent="leJkpRWJauK3kYzL0tL3-14">
          <mxGeometry relative="1" as="geometry">
            <mxPoint x="25" y="800" as="sourcePoint" />
            <Array as="points">
              <mxPoint x="55" y="800" />
            </Array>
          </mxGeometry>
        </mxCell>
        <mxCell id="leJkpRWJauK3kYzL0tL3-15" value="Booking" style="shape=umlLifeline;participant=umlEntity;perimeter=lifelinePerimeter;whiteSpace=wrap;html=1;container=1;collapsible=0;recursiveResize=0;verticalAlign=top;spacingTop=36;outlineConnect=0;" vertex="1" parent="1">
          <mxGeometry x="980" y="50" width="40" height="1350" as="geometry" />
        </mxCell>
        <mxCell id="leJkpRWJauK3kYzL0tL3-109" value="" style="html=1;points=[];perimeter=orthogonalPerimeter;" vertex="1" parent="leJkpRWJauK3kYzL0tL3-15">
          <mxGeometry x="15" y="1080" width="10" height="230" as="geometry" />
        </mxCell>
        <mxCell id="leJkpRWJauK3kYzL0tL3-111" value="" style="html=1;points=[];perimeter=orthogonalPerimeter;" vertex="1" parent="leJkpRWJauK3kYzL0tL3-15">
          <mxGeometry x="20" y="1110" width="10" height="170" as="geometry" />
        </mxCell>
        <mxCell id="leJkpRWJauK3kYzL0tL3-112" value="39. Booking&amp;nbsp;" style="edgeStyle=orthogonalEdgeStyle;html=1;align=left;spacingLeft=2;endArrow=block;rounded=0;entryX=1;entryY=0;" edge="1" target="leJkpRWJauK3kYzL0tL3-111" parent="leJkpRWJauK3kYzL0tL3-15">
          <mxGeometry relative="1" as="geometry">
            <mxPoint x="25" y="1090" as="sourcePoint" />
            <Array as="points">
              <mxPoint x="55" y="1090" />
            </Array>
          </mxGeometry>
        </mxCell>
        <mxCell id="leJkpRWJauK3kYzL0tL3-16" value="Client" style="shape=umlLifeline;participant=umlEntity;perimeter=lifelinePerimeter;whiteSpace=wrap;html=1;container=1;collapsible=0;recursiveResize=0;verticalAlign=top;spacingTop=36;outlineConnect=0;" vertex="1" parent="1">
          <mxGeometry x="1030" y="50" width="40" height="1350" as="geometry" />
        </mxCell>
        <mxCell id="leJkpRWJauK3kYzL0tL3-113" value="" style="html=1;points=[];perimeter=orthogonalPerimeter;" vertex="1" parent="leJkpRWJauK3kYzL0tL3-16">
          <mxGeometry x="13.33" y="1130" width="10" height="60" as="geometry" />
        </mxCell>
        <mxCell id="leJkpRWJauK3kYzL0tL3-115" value="" style="html=1;points=[];perimeter=orthogonalPerimeter;" vertex="1" parent="leJkpRWJauK3kYzL0tL3-16">
          <mxGeometry x="18" y="1160" width="10" height="20" as="geometry" />
        </mxCell>
        <mxCell id="leJkpRWJauK3kYzL0tL3-116" value="41. Client()" style="edgeStyle=orthogonalEdgeStyle;html=1;align=left;spacingLeft=2;endArrow=block;rounded=0;entryX=1;entryY=0;" edge="1" target="leJkpRWJauK3kYzL0tL3-115" parent="leJkpRWJauK3kYzL0tL3-16">
          <mxGeometry relative="1" as="geometry">
            <mxPoint x="23" y="1140" as="sourcePoint" />
            <Array as="points">
              <mxPoint x="53" y="1140" />
            </Array>
          </mxGeometry>
        </mxCell>
        <mxCell id="leJkpRWJauK3kYzL0tL3-17" value="Bill" style="shape=umlLifeline;participant=umlEntity;perimeter=lifelinePerimeter;whiteSpace=wrap;html=1;container=1;collapsible=0;recursiveResize=0;verticalAlign=top;spacingTop=36;outlineConnect=0;" vertex="1" parent="1">
          <mxGeometry x="1080" y="50" width="40" height="1350" as="geometry" />
        </mxCell>
        <mxCell id="leJkpRWJauK3kYzL0tL3-118" value="" style="html=1;points=[];perimeter=orthogonalPerimeter;" vertex="1" parent="leJkpRWJauK3kYzL0tL3-17">
          <mxGeometry x="15" y="1200" width="10" height="80" as="geometry" />
        </mxCell>
        <mxCell id="leJkpRWJauK3kYzL0tL3-120" value="" style="html=1;points=[];perimeter=orthogonalPerimeter;" vertex="1" parent="leJkpRWJauK3kYzL0tL3-17">
          <mxGeometry x="20" y="1230" width="10" height="40" as="geometry" />
        </mxCell>
        <mxCell id="leJkpRWJauK3kYzL0tL3-121" value="44. Bill()" style="edgeStyle=orthogonalEdgeStyle;html=1;align=left;spacingLeft=2;endArrow=block;rounded=0;entryX=1;entryY=0;" edge="1" target="leJkpRWJauK3kYzL0tL3-120" parent="leJkpRWJauK3kYzL0tL3-17">
          <mxGeometry relative="1" as="geometry">
            <mxPoint x="25" y="1210" as="sourcePoint" />
            <Array as="points">
              <mxPoint x="55" y="1210" />
            </Array>
          </mxGeometry>
        </mxCell>
        <mxCell id="leJkpRWJauK3kYzL0tL3-25" value="1. Login" style="html=1;verticalAlign=bottom;startArrow=none;endArrow=block;startSize=8;exitX=0;exitY=0;exitDx=10;exitDy=20;exitPerimeter=0;startFill=0;" edge="1" target="leJkpRWJauK3kYzL0tL3-24" parent="1" source="leJkpRWJauK3kYzL0tL3-3">
          <mxGeometry relative="1" as="geometry">
            <mxPoint x="100" y="160" as="sourcePoint" />
          </mxGeometry>
        </mxCell>
        <mxCell id="leJkpRWJauK3kYzL0tL3-31" value="3. Call" style="html=1;verticalAlign=bottom;startArrow=none;endArrow=block;startSize=8;exitX=0.9;exitY=0.25;exitDx=0;exitDy=0;exitPerimeter=0;startFill=0;" edge="1" target="leJkpRWJauK3kYzL0tL3-30" parent="1">
          <mxGeometry relative="1" as="geometry">
            <mxPoint x="179" y="215" as="sourcePoint" />
          </mxGeometry>
        </mxCell>
        <mxCell id="leJkpRWJauK3kYzL0tL3-43" value="5. return" style="html=1;verticalAlign=bottom;endArrow=open;dashed=1;endSize=8;entryX=1.083;entryY=0.183;entryDx=0;entryDy=0;entryPerimeter=0;" edge="1" parent="1" source="leJkpRWJauK3kYzL0tL3-30" target="leJkpRWJauK3kYzL0tL3-55">
          <mxGeometry relative="1" as="geometry">
            <mxPoint x="810" y="248" as="sourcePoint" />
            <mxPoint x="181.9999999999999" y="240" as="targetPoint" />
            <Array as="points">
              <mxPoint x="690" y="240" />
              <mxPoint x="340" y="240" />
            </Array>
          </mxGeometry>
        </mxCell>
        <mxCell id="leJkpRWJauK3kYzL0tL3-45" value="6. Call" style="html=1;verticalAlign=bottom;startArrow=none;endArrow=block;startSize=8;startFill=0;" edge="1" target="leJkpRWJauK3kYzL0tL3-44" parent="1">
          <mxGeometry relative="1" as="geometry">
            <mxPoint x="180" y="260" as="sourcePoint" />
          </mxGeometry>
        </mxCell>
        <mxCell id="leJkpRWJauK3kYzL0tL3-49" value="8. Call" style="html=1;verticalAlign=bottom;startArrow=none;endArrow=block;startSize=8;startFill=0;" edge="1" target="leJkpRWJauK3kYzL0tL3-48" parent="1">
          <mxGeometry relative="1" as="geometry">
            <mxPoint x="571" y="300" as="sourcePoint" />
          </mxGeometry>
        </mxCell>
        <mxCell id="leJkpRWJauK3kYzL0tL3-52" value="10.return" style="html=1;verticalAlign=bottom;endArrow=open;dashed=1;endSize=8;entryX=1;entryY=0.7;entryDx=0;entryDy=0;entryPerimeter=0;exitX=-0.4;exitY=0.75;exitDx=0;exitDy=0;exitPerimeter=0;" edge="1" parent="1" source="leJkpRWJauK3kYzL0tL3-50" target="leJkpRWJauK3kYzL0tL3-46">
          <mxGeometry relative="1" as="geometry">
            <mxPoint x="850" y="360" as="sourcePoint" />
            <mxPoint x="770" y="360" as="targetPoint" />
          </mxGeometry>
        </mxCell>
        <mxCell id="leJkpRWJauK3kYzL0tL3-54" value="11. return" style="html=1;verticalAlign=bottom;endArrow=open;dashed=1;endSize=8;" edge="1" parent="1" source="leJkpRWJauK3kYzL0tL3-44" target="leJkpRWJauK3kYzL0tL3-55">
          <mxGeometry relative="1" as="geometry">
            <mxPoint x="540" y="390" as="sourcePoint" />
            <mxPoint x="200" y="390" as="targetPoint" />
            <Array as="points">
              <mxPoint x="400" y="390" />
            </Array>
          </mxGeometry>
        </mxCell>
        <mxCell id="leJkpRWJauK3kYzL0tL3-59" value="12. Call" style="html=1;verticalAlign=bottom;startArrow=none;endArrow=block;startSize=8;startFill=0;" edge="1" target="leJkpRWJauK3kYzL0tL3-58" parent="1">
          <mxGeometry relative="1" as="geometry">
            <mxPoint x="178" y="410" as="sourcePoint" />
          </mxGeometry>
        </mxCell>
        <mxCell id="leJkpRWJauK3kYzL0tL3-62" value="14. display" style="html=1;verticalAlign=bottom;endArrow=open;dashed=1;endSize=8;exitX=-0.083;exitY=0.055;exitDx=0;exitDy=0;exitPerimeter=0;entryX=1.25;entryY=0.254;entryDx=0;entryDy=0;entryPerimeter=0;" edge="1" parent="1" source="leJkpRWJauK3kYzL0tL3-58" target="leJkpRWJauK3kYzL0tL3-3">
          <mxGeometry relative="1" as="geometry">
            <mxPoint x="210" y="460" as="sourcePoint" />
            <mxPoint x="130" y="460" as="targetPoint" />
          </mxGeometry>
        </mxCell>
        <mxCell id="leJkpRWJauK3kYzL0tL3-64" value="15. Click &quot;Xem thống kê&lt;br&gt;Tour theo doanh thu&quot;" style="html=1;verticalAlign=bottom;endArrow=block;exitX=1.25;exitY=0.302;exitDx=0;exitDy=0;exitPerimeter=0;entryX=-0.25;entryY=0.12;entryDx=0;entryDy=0;entryPerimeter=0;" edge="1" parent="1" source="leJkpRWJauK3kYzL0tL3-3" target="leJkpRWJauK3kYzL0tL3-58">
          <mxGeometry width="80" relative="1" as="geometry">
            <mxPoint x="93" y="500" as="sourcePoint" />
            <mxPoint x="220" y="520" as="targetPoint" />
            <Array as="points">
              <mxPoint x="190" y="520" />
            </Array>
          </mxGeometry>
        </mxCell>
        <mxCell id="leJkpRWJauK3kYzL0tL3-69" value="17. Call" style="html=1;verticalAlign=bottom;startArrow=none;endArrow=block;startSize=8;exitX=0.917;exitY=0.258;exitDx=0;exitDy=0;exitPerimeter=0;startFill=0;" edge="1" target="leJkpRWJauK3kYzL0tL3-68" parent="1">
          <mxGeometry relative="1" as="geometry">
            <mxPoint x="255.00000000000009" y="560.3199999999999" as="sourcePoint" />
          </mxGeometry>
        </mxCell>
        <mxCell id="leJkpRWJauK3kYzL0tL3-72" value="19. Display" style="html=1;verticalAlign=bottom;endArrow=open;dashed=1;endSize=8;entryX=1.333;entryY=0.373;entryDx=0;entryDy=0;entryPerimeter=0;" edge="1" parent="1" target="leJkpRWJauK3kYzL0tL3-3">
          <mxGeometry relative="1" as="geometry">
            <mxPoint x="360" y="610" as="sourcePoint" />
            <mxPoint x="280" y="610" as="targetPoint" />
          </mxGeometry>
        </mxCell>
        <mxCell id="leJkpRWJauK3kYzL0tL3-75" value="20. Chọn ngày bắt đầu, kết thúc, click &quot;xem&quot;" style="html=1;verticalAlign=bottom;endArrow=block;exitX=1.083;exitY=0.404;exitDx=0;exitDy=0;exitPerimeter=0;" edge="1" parent="1" source="leJkpRWJauK3kYzL0tL3-3">
          <mxGeometry width="80" relative="1" as="geometry">
            <mxPoint x="260" y="650" as="sourcePoint" />
            <mxPoint x="362" y="646" as="targetPoint" />
          </mxGeometry>
        </mxCell>
        <mxCell id="leJkpRWJauK3kYzL0tL3-81" value="22. Call" style="html=1;verticalAlign=bottom;startArrow=none;endArrow=block;startSize=8;exitX=0.983;exitY=0.075;exitDx=0;exitDy=0;exitPerimeter=0;startFill=0;" edge="1" target="leJkpRWJauK3kYzL0tL3-80" parent="1" source="leJkpRWJauK3kYzL0tL3-78">
          <mxGeometry relative="1" as="geometry">
            <mxPoint x="400" y="700" as="sourcePoint" />
            <Array as="points">
              <mxPoint x="620" y="700" />
            </Array>
          </mxGeometry>
        </mxCell>
        <mxCell id="leJkpRWJauK3kYzL0tL3-85" value="24. Call" style="html=1;verticalAlign=bottom;startArrow=none;endArrow=block;startSize=8;exitX=1.347;exitY=0.481;exitDx=0;exitDy=0;exitPerimeter=0;startFill=0;" edge="1" target="leJkpRWJauK3kYzL0tL3-84" parent="1" source="leJkpRWJauK3kYzL0tL3-82">
          <mxGeometry relative="1" as="geometry">
            <mxPoint x="835" y="750" as="sourcePoint" />
          </mxGeometry>
        </mxCell>
        <mxCell id="leJkpRWJauK3kYzL0tL3-89" value="26. Call" style="html=1;verticalAlign=bottom;startArrow=none;endArrow=block;startSize=8;startFill=0;entryX=-0.153;entryY=0.057;entryDx=0;entryDy=0;entryPerimeter=0;" edge="1" target="leJkpRWJauK3kYzL0tL3-88" parent="1" source="leJkpRWJauK3kYzL0tL3-86">
          <mxGeometry relative="1" as="geometry">
            <mxPoint x="920" y="845" as="sourcePoint" />
          </mxGeometry>
        </mxCell>
        <mxCell id="leJkpRWJauK3kYzL0tL3-92" value="28. return" style="html=1;verticalAlign=bottom;endArrow=open;dashed=1;endSize=8;exitX=0.2;exitY=0.601;exitDx=0;exitDy=0;exitPerimeter=0;entryX=1.205;entryY=0.894;entryDx=0;entryDy=0;entryPerimeter=0;" edge="1" parent="1" source="leJkpRWJauK3kYzL0tL3-88" target="leJkpRWJauK3kYzL0tL3-86">
          <mxGeometry relative="1" as="geometry">
            <mxPoint x="970" y="990" as="sourcePoint" />
            <mxPoint x="920" y="888" as="targetPoint" />
          </mxGeometry>
        </mxCell>
        <mxCell id="leJkpRWJauK3kYzL0tL3-93" value="29. return" style="html=1;verticalAlign=bottom;endArrow=open;dashed=1;endSize=8;exitX=0.133;exitY=0.882;exitDx=0;exitDy=0;exitPerimeter=0;entryX=1.205;entryY=0.942;entryDx=0;entryDy=0;entryPerimeter=0;" edge="1" parent="1" source="leJkpRWJauK3kYzL0tL3-84" target="leJkpRWJauK3kYzL0tL3-82">
          <mxGeometry relative="1" as="geometry">
            <mxPoint x="850" y="890" as="sourcePoint" />
            <mxPoint x="770" y="890" as="targetPoint" />
          </mxGeometry>
        </mxCell>
        <mxCell id="leJkpRWJauK3kYzL0tL3-94" value="30. return" style="html=1;verticalAlign=bottom;endArrow=open;dashed=1;endSize=8;entryX=1.317;entryY=0.851;entryDx=0;entryDy=0;entryPerimeter=0;" edge="1" parent="1" source="leJkpRWJauK3kYzL0tL3-80" target="leJkpRWJauK3kYzL0tL3-78">
          <mxGeometry relative="1" as="geometry">
            <mxPoint x="620" y="900" as="sourcePoint" />
            <mxPoint x="540" y="900" as="targetPoint" />
          </mxGeometry>
        </mxCell>
        <mxCell id="leJkpRWJauK3kYzL0tL3-95" value="31. Display" style="html=1;verticalAlign=bottom;endArrow=open;dashed=1;endSize=8;entryX=1.167;entryY=0.621;entryDx=0;entryDy=0;entryPerimeter=0;" edge="1" parent="1" source="leJkpRWJauK3kYzL0tL3-6" target="leJkpRWJauK3kYzL0tL3-3">
          <mxGeometry relative="1" as="geometry">
            <mxPoint x="320" y="922" as="sourcePoint" />
            <mxPoint x="100.00000000000016" y="920" as="targetPoint" />
          </mxGeometry>
        </mxCell>
        <mxCell id="leJkpRWJauK3kYzL0tL3-96" value="32. Click 1 dòng trên bảng kết quả" style="html=1;verticalAlign=bottom;endArrow=block;exitX=1.083;exitY=0.404;exitDx=0;exitDy=0;exitPerimeter=0;entryX=0.084;entryY=0.167;entryDx=0;entryDy=0;entryPerimeter=0;" edge="1" parent="1">
          <mxGeometry width="80" relative="1" as="geometry">
            <mxPoint x="90.00000000000016" y="970" as="sourcePoint" />
            <mxPoint x="360.8400000000001" y="971.1400000000001" as="targetPoint" />
          </mxGeometry>
        </mxCell>
        <mxCell id="leJkpRWJauK3kYzL0tL3-100" value="34. Call" style="html=1;verticalAlign=bottom;startArrow=none;endArrow=block;startSize=8;exitX=0.9;exitY=0.504;exitDx=0;exitDy=0;exitPerimeter=0;startFill=0;" edge="1" target="leJkpRWJauK3kYzL0tL3-99" parent="1" source="leJkpRWJauK3kYzL0tL3-97">
          <mxGeometry relative="1" as="geometry">
            <mxPoint x="420" y="1030" as="sourcePoint" />
          </mxGeometry>
        </mxCell>
        <mxCell id="leJkpRWJauK3kYzL0tL3-104" value="36. Call" style="html=1;verticalAlign=bottom;startArrow=none;endArrow=block;startSize=8;exitX=1.257;exitY=0.053;exitDx=0;exitDy=0;exitPerimeter=0;startFill=0;" edge="1" target="leJkpRWJauK3kYzL0tL3-9" parent="1" source="leJkpRWJauK3kYzL0tL3-101">
          <mxGeometry relative="1" as="geometry">
            <mxPoint x="530" y="1080" as="sourcePoint" />
            <Array as="points">
              <mxPoint x="590" y="1080" />
            </Array>
          </mxGeometry>
        </mxCell>
        <mxCell id="leJkpRWJauK3kYzL0tL3-110" value="38. Call" style="html=1;verticalAlign=bottom;startArrow=none;endArrow=block;startSize=8;exitX=1.083;exitY=0.125;exitDx=0;exitDy=0;exitPerimeter=0;startFill=0;" edge="1" target="leJkpRWJauK3kYzL0tL3-109" parent="1" source="leJkpRWJauK3kYzL0tL3-107">
          <mxGeometry relative="1" as="geometry">
            <mxPoint x="935" y="1130" as="sourcePoint" />
            <Array as="points">
              <mxPoint x="830" y="1140" />
            </Array>
          </mxGeometry>
        </mxCell>
        <mxCell id="leJkpRWJauK3kYzL0tL3-114" value="40. Call" style="html=1;verticalAlign=bottom;startArrow=none;endArrow=block;startSize=8;exitX=1.167;exitY=0.279;exitDx=0;exitDy=0;exitPerimeter=0;startFill=0;" edge="1" target="leJkpRWJauK3kYzL0tL3-113" parent="1">
          <mxGeometry relative="1" as="geometry">
            <mxPoint x="1010.0000000000001" y="1181.1599999999999" as="sourcePoint" />
          </mxGeometry>
        </mxCell>
        <mxCell id="leJkpRWJauK3kYzL0tL3-117" value="42.return&amp;nbsp;" style="html=1;verticalAlign=bottom;endArrow=open;dashed=1;endSize=8;exitX=0.084;exitY=0.64;exitDx=0;exitDy=0;exitPerimeter=0;" edge="1" parent="1" source="leJkpRWJauK3kYzL0tL3-113">
          <mxGeometry relative="1" as="geometry">
            <mxPoint x="1000" y="1250" as="sourcePoint" />
            <mxPoint x="1010" y="1218" as="targetPoint" />
          </mxGeometry>
        </mxCell>
        <mxCell id="leJkpRWJauK3kYzL0tL3-119" value="43. Call" style="html=1;verticalAlign=bottom;startArrow=none;endArrow=block;startSize=8;startFill=0;exitX=1.333;exitY=0.526;exitDx=0;exitDy=0;exitPerimeter=0;" edge="1" target="leJkpRWJauK3kYzL0tL3-118" parent="1" source="leJkpRWJauK3kYzL0tL3-111">
          <mxGeometry relative="1" as="geometry">
            <mxPoint x="1020" y="1250" as="sourcePoint" />
          </mxGeometry>
        </mxCell>
        <mxCell id="leJkpRWJauK3kYzL0tL3-123" value="45. return&amp;nbsp;" style="html=1;verticalAlign=bottom;endArrow=open;dashed=1;endSize=8;entryX=1.417;entryY=0.825;entryDx=0;entryDy=0;entryPerimeter=0;" edge="1" parent="1" source="leJkpRWJauK3kYzL0tL3-118" target="leJkpRWJauK3kYzL0tL3-111">
          <mxGeometry relative="1" as="geometry">
            <mxPoint x="1070" y="1300" as="sourcePoint" />
            <mxPoint x="1030" y="1300" as="targetPoint" />
          </mxGeometry>
        </mxCell>
        <mxCell id="leJkpRWJauK3kYzL0tL3-124" value="46. return&amp;nbsp;" style="html=1;verticalAlign=bottom;endArrow=open;dashed=1;endSize=8;exitX=0.083;exitY=0.828;exitDx=0;exitDy=0;exitPerimeter=0;entryX=1.2;entryY=0.971;entryDx=0;entryDy=0;entryPerimeter=0;" edge="1" parent="1" source="leJkpRWJauK3kYzL0tL3-109" target="leJkpRWJauK3kYzL0tL3-107">
          <mxGeometry relative="1" as="geometry">
            <mxPoint x="900" y="1320" as="sourcePoint" />
            <mxPoint x="820" y="1320" as="targetPoint" />
          </mxGeometry>
        </mxCell>
        <mxCell id="leJkpRWJauK3kYzL0tL3-125" value="47. return&amp;nbsp;" style="html=1;verticalAlign=bottom;endArrow=open;dashed=1;endSize=8;entryX=1.167;entryY=0.973;entryDx=0;entryDy=0;entryPerimeter=0;exitX=-0.333;exitY=0.995;exitDx=0;exitDy=0;exitPerimeter=0;" edge="1" parent="1" source="leJkpRWJauK3kYzL0tL3-103" target="leJkpRWJauK3kYzL0tL3-101">
          <mxGeometry relative="1" as="geometry">
            <mxPoint x="590" y="1340" as="sourcePoint" />
            <mxPoint x="510" y="1340" as="targetPoint" />
          </mxGeometry>
        </mxCell>
        <mxCell id="leJkpRWJauK3kYzL0tL3-126" value="48. display" style="html=1;verticalAlign=bottom;endArrow=open;dashed=1;endSize=8;entryX=1.186;entryY=0.962;entryDx=0;entryDy=0;entryPerimeter=0;exitX=-0.25;exitY=0.945;exitDx=0;exitDy=0;exitPerimeter=0;" edge="1" parent="1" source="leJkpRWJauK3kYzL0tL3-99" target="leJkpRWJauK3kYzL0tL3-3">
          <mxGeometry relative="1" as="geometry">
            <mxPoint x="450" y="1352" as="sourcePoint" />
            <mxPoint x="390" y="1350" as="targetPoint" />
          </mxGeometry>
        </mxCell>
      </root>
    </mxGraphModel>
  </diagram>
</mxfile>
